<?xml version="1.0" encoding="UTF-8"?>
<!-- Generator: visioncortex VTracer 0.6.4 -->
<svg version="1.1" xmlns="http://www.w3.org/2000/svg" width="1024" height="476">
<path d="M0 0 C2.52787974 2.35935442 4.44548204 4.89096409 6 8 C6.0825 6.88625 6.165 5.7725 6.25 4.625 C7 1 7 1 8.52734375 -0.125 C12.04931417 -1.37132129 15.64112126 -2.00305511 19.3125 -2.625 C20.04662109 -2.7590625 20.78074219 -2.893125 21.53710938 -3.03125 C26.09396508 -3.82374664 30.37616132 -4.1343784 35 -4 C34.43007622 2.85042276 33.0484688 9.05026081 31.10546875 15.6328125 C30.80593292 16.67073944 30.50639709 17.70866638 30.19778442 18.77804565 C29.54441037 21.03946949 28.88774899 23.29994555 28.22817993 25.55957031 C26.60818664 31.10976109 25.00735148 36.66546414 23.40548515 42.22090912 C22.82863435 44.22062973 22.25088997 46.22009085 21.67311096 48.21954346 C18.62521472 58.77704441 15.63475343 69.35022757 12.6640625 79.9296875 C12.44099993 80.72378147 12.21793736 81.51787544 11.98811531 82.33603287 C9.99371488 89.43680297 8.00144905 96.5381699 6.01327515 103.64068604 C4.97350209 107.35496717 3.93150851 111.06861942 2.88814926 114.78189468 C2.50633799 116.14249177 2.12537304 117.50332673 1.74539566 118.8644371 C-0.98333572 128.63847404 -3.92915558 138.32935807 -7 148 C11.34795634 148.09840966 29.66460854 147.87598865 48.00390625 147.3125 C49.00914805 147.28218374 49.00914805 147.28218374 50.03469777 147.25125504 C94.14514514 145.91976416 138.2211224 143.65294919 182.29811156 141.5152092 C195.34498107 140.88264459 208.39221694 140.25776005 221.43945312 139.6328125 C234.84335586 138.99057376 248.24723203 138.34782668 261.65086365 137.69995117 C273.43377302 137.13044867 285.21681644 136.56380076 297 136 C297.99329142 135.95240791 298.98658284 135.90481583 300.009974 135.85578156 C305.9829359 135.56974797 311.95598351 135.28562313 317.92916024 135.00411034 C319.77329587 134.91697674 321.61740645 134.82931076 323.4614886 134.74105263 C400.36041437 131.06467212 400.36041437 131.06467212 424.3359375 149.828125 C427.4886695 152.78783259 430.11072974 155.66480746 431 160 C430.625 163.3125 430.625 163.3125 430 166 C426.67654558 165.29172283 423.78543792 164.0715027 420.6875 162.6875 C365.24492456 139.61966585 296.37388274 156.68074357 239.88168335 167.21832275 C211.90039216 172.42405623 184.19884618 176.22829801 155.6875 176.3125 C154.81984009 176.31511841 153.95218018 176.31773682 153.05822754 176.32043457 C129.60776071 176.32782986 106.33183779 174.16302749 83 172 C82.0368689 171.91087341 81.07373779 171.82174683 80.0814209 171.72991943 C78.19651013 171.5554535 76.31160705 171.38090436 74.42671204 171.20626831 C69.82638794 170.78064036 65.22574114 170.35859227 60.625 169.9375 C59.73233429 169.85508057 58.83966858 169.77266113 57.91995239 169.68774414 C33.98947448 167.49264884 9.99535771 166.2487199 -14 165 C-14.19693954 165.67220581 -14.39387909 166.34441162 -14.5967865 167.0369873 C-14.8599617 167.92648071 -15.1231369 168.81597412 -15.39428711 169.73242188 C-15.65310165 170.61087769 -15.9119162 171.4893335 -16.17857361 172.39440918 C-17.38384619 176.21757241 -18.91569214 179.84914467 -20.5625 183.5 C-21.07804443 184.6461377 -21.07804443 184.6461377 -21.60400391 185.81542969 C-30.31743024 204.81170913 -41.07675782 221.57033026 -55.62744141 236.57617188 C-56.83635861 237.83024607 -58.01990572 239.10867193 -59.19921875 240.390625 C-85.46583967 268.20822735 -125.14766836 284.06716327 -163.05859375 285.203125 C-188.11337822 285.56690944 -216.96603175 281.5436496 -236.625 264.5 C-245.76282671 255.5464656 -250.71553419 246.81836765 -251.25 233.875 C-250.99409758 218.62321581 -243.63615719 206.41563081 -233 196 C-187.70849277 152.28580894 -94.98302663 148.53415593 -36 149 C-35.76543091 148.18692383 -35.76543091 148.18692383 -35.52612305 147.35742188 C-33.96505756 142.04491239 -32.28407428 136.77940753 -30.51953125 131.53125 C-30.30029999 130.87906494 -30.08106873 130.22687988 -29.85519409 129.55493164 C-28.94170019 126.84213909 -28.0259194 124.13013057 -27.10766602 121.41894531 C-26.42986132 119.41557701 -25.75571991 117.41100548 -25.08203125 115.40625 C-24.68218018 114.22353516 -24.2823291 113.04082031 -23.87036133 111.82226562 C-22.9017681 109.17370692 -22.9017681 109.17370692 -23 107 C-23.4846875 107.64066406 -23.969375 108.28132813 -24.46875 108.94140625 C-32.22825667 118.95415428 -40.86692489 128.06503282 -54 130 C-61.40425739 130.37137341 -67.60336628 128.48324803 -73.375 123.8125 C-79.70746076 117.77427479 -82.05438685 110.76397282 -82.39428711 102.16381836 C-82.9927255 69.60133185 -67.89269902 34.66702895 -45.6875 11.1875 C-33.766563 -0.35050188 -15.66461024 -9.95734915 0 0 Z M-27.1484375 24.45703125 C-41.99566822 44.84848104 -53.66915936 73.42773127 -51 99 C-49.81027822 102.34569754 -49.81027822 102.34569754 -48 105 C-44.83390301 106.52647068 -44.83390301 106.52647068 -41 106 C-25.30884125 98.81977011 -17.54686135 80.73741674 -11.6875 65.5625 C-6.15200311 50.68315976 0.53872201 31.62301587 -5 16 C-6.90502488 13.69348276 -6.90502488 13.69348276 -10.125 13.5625 C-17.51834091 14.39723204 -22.52985413 18.83670034 -27.1484375 24.45703125 Z M-145 180 C-145.70914551 180.23686523 -146.41829102 180.47373047 -147.14892578 180.71777344 C-162.40076752 185.87601636 -176.63009136 192.56865913 -189 203 C-189.76054687 203.63550781 -190.52109375 204.27101563 -191.3046875 204.92578125 C-198.26826405 211.27183308 -203.69856214 220.24699259 -204.16796875 229.84375 C-203.72017347 235.59219175 -201.73791563 241.31182871 -197.7578125 245.58984375 C-186.39960585 254.70164953 -171.80269751 256.18338392 -157.77929688 254.77734375 C-136.59412579 252.3493419 -115.82837928 245.98446794 -98 234 C-96.69869141 233.12601563 -96.69869141 233.12601563 -95.37109375 232.234375 C-87.99837689 227.07452195 -81.49275303 221.19843867 -75 215 C-74.2059375 214.25878906 -73.411875 213.51757812 -72.59375 212.75390625 C-63.4483117 203.97879379 -56.41936021 194.08285781 -50.0625 183.1875 C-49.60182129 182.39939941 -49.14114258 181.61129883 -48.66650391 180.79931641 C-45.92862455 175.98547373 -43.80869188 171.23505868 -42 166 C-76.39911365 165.34891268 -112.27014226 168.81244674 -145 180 Z " fill="#000000" transform="translate(455,142)"/>
<path d="M0 0 C7.0799508 5.0876594 10.90213655 11.72661462 13.0625 20.1171875 C15.9006466 38.27008553 6.10387635 58.43633833 0.33203125 75.2890625 C-7.39315824 94.2973679 -7.39315824 94.2973679 -5.54296875 113.765625 C-2.57296875 113.435625 0.39703125 113.105625 3.45703125 112.765625 C-3.00308668 120.92577397 -10.40465176 128.58705775 -21.10546875 130.13671875 C-25.52010919 130.2569894 -28.58876884 130.26330276 -32.10546875 127.390625 C-35.23702252 124.01818248 -35.69620775 122.55261113 -35.73046875 118.078125 C-35.74464844 117.24925781 -35.75882813 116.42039062 -35.7734375 115.56640625 C-35.49041236 112.12693129 -34.56831502 109.05240692 -33.54296875 105.765625 C-34.22101563 106.59964844 -34.8990625 107.43367188 -35.59765625 108.29296875 C-54.22787842 130.94213578 -54.22787842 130.94213578 -68.54296875 133.765625 C-76.13409246 134.4952709 -81.32939648 132.90800651 -87.73046875 128.640625 C-91.37654362 125.46375012 -92.8961651 121.21199487 -94.54296875 116.765625 C-95.36539063 117.63445312 -96.1878125 118.50328125 -97.03515625 119.3984375 C-106.08104351 128.79957252 -114.48951906 136.68846968 -128.04296875 138.140625 C-133.87317608 137.51595993 -137.25136808 135.3631311 -140.91796875 130.828125 C-149.22067215 115.18072243 -139.34529439 92.74141599 -134.60351562 77.16162109 C-133.47438883 73.54602401 -132.3041715 69.94595079 -131.12109375 66.34765625 C-130.71391113 65.10588623 -130.30672852 63.86411621 -129.88720703 62.5847168 C-129.09367778 60.18045347 -128.29045863 57.77935954 -127.47607422 55.38208008 C-125.0832212 48.15994778 -123.54296875 41.3936579 -123.54296875 33.765625 C-131.63783167 34.8524353 -137.03153916 37.63988483 -142.3515625 43.890625 C-144.23561511 46.44185882 -145.90576469 49.04943978 -147.54296875 51.765625 C-148.09597656 52.66925781 -148.64898438 53.57289063 -149.21875 54.50390625 C-157.93202558 70.26792438 -161.82982072 88.68207971 -166.71484375 105.91796875 C-166.98553177 106.87162323 -167.25621979 107.82527771 -167.53511047 108.80783081 C-168.88759322 113.57736252 -170.23072502 118.34919182 -171.55737305 123.12597656 C-172.05115997 124.88479639 -172.54505152 126.64358684 -173.0390625 128.40234375 C-173.26265442 129.21871811 -173.48624634 130.03509247 -173.71661377 130.87620544 C-175.3167287 136.53938495 -175.3167287 136.53938495 -177.54296875 138.765625 C-186.4043266 140.2062752 -195.59375391 139.88637902 -204.54296875 139.765625 C-202.96783711 130.7156083 -200.43544133 121.98621345 -197.89053345 113.17214966 C-197.09248352 110.40815142 -196.30018873 107.64254816 -195.50854492 104.87670898 C-192.85158135 95.61877919 -190.14152284 86.37925802 -187.33984375 77.1640625 C-187.08633652 76.32666031 -186.83282928 75.48925812 -186.57164001 74.6264801 C-185.37246706 70.66617154 -184.163484 66.70949951 -182.93383789 62.75854492 C-180.6242763 55.23126194 -178.34359397 47.7315078 -178.54296875 39.765625 C-179.6169918 38.4989295 -179.6169918 38.4989295 -182.10546875 38.328125 C-188.71432566 39.16925224 -192.98966843 43.81932627 -196.98828125 48.890625 C-200.45821466 53.45072551 -203.07300827 58.14066856 -205.48046875 63.328125 C-205.90521484 64.23884766 -206.32996094 65.14957031 -206.76757812 66.08789062 C-215.74243019 85.85409406 -220.9822712 107.01204064 -226.5390625 127.9296875 C-226.72722031 128.63187408 -226.91537811 129.33406067 -227.10923767 130.05752563 C-227.91033518 133.10230135 -228.58812187 136.07497565 -229.04321289 139.19287109 C-229.20813232 140.04187988 -229.37305176 140.89088867 -229.54296875 141.765625 C-232.98378043 143.48603084 -236.87453264 143.44133204 -240.66796875 143.828125 C-241.91320312 143.96444336 -241.91320312 143.96444336 -243.18359375 144.10351562 C-248.33424085 144.64037774 -253.36496382 144.85531331 -258.54296875 144.765625 C-260.29736712 139.62283619 -258.59473454 135.44295855 -257.0703125 130.46484375 C-256.65881203 129.07202934 -256.65881203 129.07202934 -256.23899841 127.65107727 C-255.32978218 124.5819282 -254.40496643 121.51770197 -253.48046875 118.453125 C-252.84399118 116.31221236 -252.20875494 114.17093033 -251.57470703 112.02929688 C-250.24767599 107.55106561 -248.91522378 103.07450231 -247.57861328 98.59912109 C-244.62422701 88.69624997 -241.71965923 78.77886184 -238.82278442 68.85903931 C-237.93995151 65.84078041 -237.05225047 62.82398781 -236.16381836 59.80737305 C-233.72706014 51.5087049 -231.31953477 43.20395619 -229.16015625 34.828125 C-228.69391846 33.02021484 -228.69391846 33.02021484 -228.21826172 31.17578125 C-227.19733296 26.02020177 -227.18654382 20.99319068 -227.54296875 15.765625 C-224.87749163 15.3991219 -222.21135574 15.04721816 -219.54296875 14.703125 C-218.79917969 14.59935547 -218.05539062 14.49558594 -217.2890625 14.38867188 C-211.3995033 13.64607528 -205.35978017 13.14595844 -200.04296875 16.203125 C-196.97625491 21.44209448 -198.14577546 27.70060595 -199.54296875 33.390625 C-199.87296875 34.504375 -200.20296875 35.618125 -200.54296875 36.765625 C-200.23746094 36.24355469 -199.93195312 35.72148437 -199.6171875 35.18359375 C-193.09334059 24.6903076 -184.55468494 16.39906982 -173.54296875 10.765625 C-172.91132812 10.39179688 -172.2796875 10.01796875 -171.62890625 9.6328125 C-168.87903423 8.48960728 -166.57655977 8.46436494 -163.60546875 8.453125 C-162.58582031 8.43636719 -161.56617188 8.41960937 -160.515625 8.40234375 C-156.00330042 8.9537842 -153.4337495 10.8239425 -150.35546875 14.078125 C-147.04162558 18.99175452 -146.24088928 23.94962059 -145.54296875 29.765625 C-145.13046875 29.20875 -144.71796875 28.651875 -144.29296875 28.078125 C-136.07160602 17.21418139 -125.79079865 5.87641462 -111.54296875 3.765625 C-105.14777742 3.70403407 -100.53492892 4.486802 -95.54296875 8.765625 C-91.7709337 12.53766005 -89.9505009 16.46392362 -89.54296875 21.765625 C-90.32374311 31.56897191 -93.12307778 40.8683367 -96.04296875 50.203125 C-96.48338533 51.6342376 -96.92340093 53.06547365 -97.36303711 54.49682617 C-100.87240368 65.86126914 -104.58863584 77.15731031 -108.40625 88.42163086 C-109.00179687 90.17938843 -109.00179687 90.17938843 -109.609375 91.97265625 C-109.95943604 92.9985083 -110.30949707 94.02436035 -110.67016602 95.08129883 C-111.94540564 99.00332949 -112.68162609 102.32177838 -112.66796875 106.453125 C-112.67054688 107.24074219 -112.673125 108.02835937 -112.67578125 108.83984375 C-112.75424653 110.77327414 -112.75424653 110.77327414 -111.54296875 111.765625 C-106.18084567 112.70399654 -102.83594029 110.69896943 -98.56201172 107.7434082 C-94.91787294 104.17373853 -94.82275964 100.0331484 -94.35546875 95.140625 C-94.07330619 93.06639328 -93.78145302 90.99345928 -93.48046875 88.921875 C-93.33351563 87.88546875 -93.1865625 86.8490625 -93.03515625 85.78125 C-88.28637962 56.68557097 -72.69039584 25.79077921 -50.0625 6.546875 C-35.52926738 -3.72778248 -16.26400638 -9.52256461 0 0 Z M-40.54296875 27.765625 C-43.83417559 32.27558932 -46.76300059 36.92619072 -49.54296875 41.765625 C-50.07519043 42.69205811 -50.07519043 42.69205811 -50.61816406 43.63720703 C-58.58204915 57.81115763 -64.67131646 74.32568511 -64.79296875 90.703125 C-64.81359375 91.39341797 -64.83421875 92.08371094 -64.85546875 92.79492188 C-64.8914669 97.54217778 -64.09858446 100.76343436 -61.54296875 104.765625 C-57.9037956 106.83333702 -56.2228367 106.94188706 -52.16796875 105.890625 C-34.22554685 96.74196153 -24.67475081 68.89807951 -18.76171875 50.828125 C-15.60581927 40.62015383 -12.96666215 29.4752375 -14.54296875 18.765625 C-15.77898905 16.41620075 -15.77898905 16.41620075 -17.54296875 14.765625 C-27.24234132 12.96109057 -34.85768225 20.98402899 -40.54296875 27.765625 Z M-202.54296875 37.765625 C-201.54296875 39.765625 -201.54296875 39.765625 -201.54296875 39.765625 Z M-203.54296875 39.765625 C-202.54296875 41.765625 -202.54296875 41.765625 -202.54296875 41.765625 Z " fill="#000000" transform="translate(731.54296875,121.234375)"/>
<path d="M0 0 C8.0240068 8.0240068 12.65857108 16.65747009 13.1875 28.0625 C12.73999957 41.83773064 6.28347521 54.22432561 -3.546875 63.63671875 C-13.99039233 71.80137608 -25.11258847 74.7171714 -38.25 73.75 C-40.89905362 73.00912647 -42.83432419 72.09828417 -45.25 70.75 C-42.25 68.75 -42.25 68.75 -40.05078125 67.55859375 C-28.537363 61.21446532 -22.48233129 52.3695501 -17.9375 40.25 C-16.53843218 33.12747292 -16.27744583 26.81734919 -19.9921875 20.375 C-22.87631275 16.64892514 -26.45628931 15.92790067 -30.875 14.9375 C-44.79967491 13.75073793 -57.8446476 20.27963163 -68.30078125 29.015625 C-68.94402344 29.58796875 -69.58726562 30.1603125 -70.25 30.75 C-70.86230469 31.28109375 -71.47460938 31.8121875 -72.10546875 32.359375 C-84.28903083 43.65539283 -92.04713558 61.2910979 -92.6875 77.8125 C-92.4861056 84.48478406 -91.09615376 91.12463988 -86.89453125 96.4765625 C-80.79180594 102.0720908 -73.3979666 102.06038398 -65.5859375 101.953125 C-61.60877065 101.71095559 -57.85046462 100.99903448 -53.953125 100.20703125 C-48.2967311 99.25067563 -42.64143742 98.80338936 -37.25 100.9375 C-33.75707094 104.10296696 -32.39053914 106.46172459 -31.875 111.1875 C-32.55149803 117.61423131 -35.35791735 121.63620323 -40.25 125.75 C-46.44323249 129.46593949 -51.26810066 128.62647238 -58.25 127.75 C-69.5901839 126.59325993 -82.30778688 130.42507803 -92.25 135.75 C-93.18070312 136.23082031 -94.11140625 136.71164063 -95.0703125 137.20703125 C-112.44059797 146.69182907 -123.73684763 160.73138182 -129.41015625 179.5078125 C-132.41373874 191.10303791 -132.48429033 202.38694683 -126.99609375 213.2265625 C-123.73319487 218.68547235 -120.33072669 221.78167229 -114.25 223.75 C-99.15402983 227.34196718 -85.23316234 222.3566057 -72.25 214.75 C-68.67934929 212.31224696 -65.44738735 209.65671577 -62.25 206.75 C-61.41855469 205.99976563 -60.58710938 205.24953125 -59.73046875 204.4765625 C-51.05680309 196.24257575 -44.17539886 186.67153661 -39.25 175.75 C-35.43053882 181.47919178 -36.75216464 188.82285412 -37.8671875 195.37890625 C-41.37440142 210.01298911 -47.99612761 222.70994163 -58.25 233.75 C-59.07113281 234.66265625 -59.89226562 235.5753125 -60.73828125 236.515625 C-76.21397566 252.93132455 -95.77013341 262.3678437 -118.4375 263.125 C-134.71683101 262.86002615 -149.07217114 257.51221393 -160.96484375 246.22265625 C-173.89957576 232.22661289 -176.95694724 215.45161664 -176.38623047 197.12841797 C-175.28310531 177.86919703 -165.47384833 160.301296 -152.25 146.75 C-151.445625 145.904375 -150.64125 145.05875 -149.8125 144.1875 C-148.5440625 142.9809375 -148.5440625 142.9809375 -147.25 141.75 C-146.62609375 141.11964844 -146.0021875 140.48929688 -145.359375 139.83984375 C-132.47292705 127.41362608 -115.77558633 119.23001415 -99.25 112.75 C-101.608808 111.55021124 -103.98256311 110.41245535 -106.38671875 109.3046875 C-117.18828504 104.19503568 -126.75875807 98.44987394 -131.25 86.75 C-135.42750649 71.3591866 -132.61326747 55.78566046 -125.25 41.75 C-109.66814406 16.74990581 -85.03413297 -1.93322212 -56.14648438 -8.74609375 C-35.76866416 -13.20086565 -17.56367645 -12.15946831 0 0 Z " fill="#000000" transform="translate(243.25,72.25)"/>
<path d="M0 0 C-1.78695658 5.55043373 -3.74514472 11.0061053 -5.85375977 16.44189453 C-16.37807834 43.7117103 -24.88588686 71.66169024 -32 100 C-29.46265565 97.4808445 -26.95072049 94.94795715 -24.4921875 92.3515625 C-15.20521006 82.67647257 -3.83147896 73.34880537 10.1875 72.5 C16.22362005 73.2916223 20.85111764 75.35070484 24.875 80 C29.85578967 87.03170307 30.07727062 93.61690661 29 102 C27.30649999 110.48724934 24.57332931 118.74772533 22 127 C21.64856934 128.12791962 21.64856934 128.12791962 21.29003906 129.27862549 C20.78127539 130.91089515 20.2722547 132.54308473 19.76300049 134.17520142 C18.96111384 136.74714823 18.16172024 139.31986233 17.36230469 141.89257812 C16.31413278 145.26426899 15.25090467 148.63064368 14.17675781 151.99414062 C6.22764286 176.53352564 6.22764286 176.53352564 8.1875 201.6875 C10.14392614 205.26303743 11.46293857 206.99030601 15 209 C21.75945625 210.78551675 27.06573037 209.52582021 33.125 206.375 C40.1836454 200.5439451 44.51586547 193.0373192 46 184 C46.36211089 177.74306073 46.59259992 171.83334981 44 166 C50.23223481 167.6997004 54.32994567 172.16090765 57.5234375 177.58984375 C62.04131961 186.89981469 62.90315059 194.03588238 60.05859375 204.0234375 C55.68381313 216.32448117 46.45049619 226.28238855 34.8125 232.0625 C32.55896756 233.08085304 30.28984864 234.06616673 28 235 C27.30519531 235.28617188 26.61039063 235.57234375 25.89453125 235.8671875 C14.97641773 239.38604969 1.50594798 237.64509728 -8.58203125 232.74609375 C-17.14794313 228.03291585 -23.32541601 221.8696918 -26.33984375 212.421875 C-27.17587461 208.08836594 -27.43207257 203.90716576 -27.5 199.5 C-27.51861084 198.74879883 -27.53722168 197.99759766 -27.55639648 197.22363281 C-27.34530429 177.2457035 -19.37029925 157.09806465 -13.69165039 138.20922852 C-12.60596295 134.58828326 -11.53113182 130.9642399 -10.45703125 127.33984375 C-10.12476028 126.24800278 -9.79248932 125.1561618 -9.45014954 124.03123474 C-6.52916608 114.68072378 -6.52916608 114.68072378 -6 105 C-7.40201448 103.22041944 -7.40201448 103.22041944 -9 102 C-19.4401017 104.36938478 -25.74909777 110.53182738 -31.5625 119.3125 C-46.70171464 143.42213247 -58 177.44370654 -58 206 C-62.33250237 206.50737777 -66.66611627 207.00457148 -71 207.5 C-72.22074219 207.64308594 -73.44148437 207.78617188 -74.69921875 207.93359375 C-80.8406679 208.63073122 -86.81878817 209.18543635 -93 209 C-92.41914064 201.90060777 -90.93257305 195.41964514 -88.95703125 188.5859375 C-88.64788284 187.50025482 -88.33873444 186.41457214 -88.0202179 185.29598999 C-84.8126802 174.14519454 -81.31431504 163.08872422 -77.77810669 152.03866577 C-68.50417025 123.01067639 -59.83947682 93.96821768 -52.5625 64.375 C-52.35231232 63.52408783 -52.14212463 62.67317566 -51.92556763 61.79647827 C-50.55253244 56.21146111 -49.24353215 50.61525814 -48 45 C-47.82345886 44.21516235 -47.64691772 43.43032471 -47.46502686 42.6217041 C-46.96002239 40.32782369 -46.48827036 38.02966014 -46.02734375 35.7265625 C-45.87656876 35.04894867 -45.72579376 34.37133484 -45.57044983 33.67318726 C-44.58086477 28.41793972 -45.62150743 25.58770269 -48 21 C-47.10023438 20.55011719 -46.20046875 20.10023437 -45.2734375 19.63671875 C-44.66411377 19.3320166 -44.05479004 19.02731445 -43.42700195 18.71337891 C-42.03764594 18.01878355 -40.64815629 17.32445544 -39.25854492 16.63037109 C-34.90746271 14.45647902 -30.55964147 12.27627201 -26.21484375 10.08984375 C-25.23660645 9.59846924 -24.25836914 9.10709473 -23.25048828 8.60083008 C-21.3170627 7.62961871 -19.38442274 6.65684151 -17.45263672 5.68237305 C-16.10903076 5.00815308 -16.10903076 5.00815308 -14.73828125 4.3203125 C-13.94462158 3.92086426 -13.15096191 3.52141602 -12.33325195 3.10986328 C-8.04024838 1.06780047 -4.80880502 -0.27478886 0 0 Z " fill="#000000" transform="translate(892,35)"/>
<path d="M0 0 C3.95704176 2.97815093 6.09748988 7.16387667 7.67578125 11.77734375 C7.73765625 12.64359375 7.79953125 13.50984375 7.86328125 14.40234375 C7.95609375 15.35753906 7.95609375 15.35753906 8.05078125 16.33203125 C8.33911743 21.68427165 7.52465315 26.6584231 6.2890625 31.84765625 C6.11597565 32.5773764 5.94288879 33.30709656 5.76455688 34.05892944 C3.27249467 44.20073569 -0.03568537 54.10095986 -3.26171875 64.02734375 C-4.21438824 66.97912079 -5.16518633 69.93149321 -6.11520386 72.88412476 C-6.70091157 74.70232294 -7.28846077 76.51992937 -7.87820435 78.33682251 C-11.20377166 87.88510441 -11.20377166 87.88510441 -12.26171875 97.83984375 C-12.24367188 98.70480469 -12.225625 99.56976563 -12.20703125 100.4609375 C-12.18382812 101.10160156 -12.160625 101.74226563 -12.13671875 102.40234375 C-9.16134137 103.73623205 -9.16134137 103.73623205 -6.32421875 102.40234375 C0.05734927 98.39822264 3.91234476 92.23806857 7.3515625 85.6640625 C7.7354866 84.93225266 8.11941071 84.20044281 8.51496887 83.44645691 C12.76698257 75.03731894 15.43842039 66.23913199 18.05078125 57.21484375 C18.56304782 55.49013321 19.07648734 53.76577064 19.59106445 52.04174805 C20.82197783 47.89898709 22.03014771 43.75007533 23.22802734 39.59765625 C23.80087195 37.61801802 24.38233377 35.64087827 24.96484375 33.6640625 C30.77258947 17.43628087 30.77258947 17.43628087 29.86328125 1.09765625 C29.53328125 0.53820312 29.20328125 -0.02125 28.86328125 -0.59765625 C33.83380092 -3.20928523 38.88443154 -3.03736629 44.36328125 -3.09765625 C45.30042969 -3.13890625 46.23757813 -3.18015625 47.203125 -3.22265625 C51.89903684 -3.27594319 54.16673288 -3.11489514 58.01953125 -0.25390625 C61.33618084 4.75074434 60.44678449 11.50028718 59.31500244 17.12921143 C58.54924348 19.93423297 57.69380044 22.69246853 56.79296875 25.45703125 C56.47425812 26.47926788 56.15554749 27.50150452 55.82717896 28.55471802 C54.81212305 31.80039517 53.77610064 35.03888211 52.73828125 38.27734375 C51.39748037 42.5232132 50.06439831 46.77149883 48.73046875 51.01953125 C48.40351013 52.05640076 48.07655151 53.09327026 47.73968506 54.16156006 C45.55375356 61.11677185 43.44819103 68.09086943 41.43359375 75.09765625 C41.18616425 75.95205292 40.93873474 76.80644958 40.68380737 77.68673706 C38.71759224 84.60834868 37.65248151 91.18840516 37.55078125 98.40234375 C37.52177734 99.088125 37.49277344 99.77390625 37.46289062 100.48046875 C37.39926423 105.6097352 38.51012447 108.54183977 41.86328125 112.40234375 C43.93538817 113.51450404 43.93538817 113.51450404 46.11328125 113.77734375 C47.35078125 113.98359375 48.58828125 114.18984375 49.86328125 114.40234375 C43.9891337 121.25551589 35.68916148 124.97881468 26.86328125 126.40234375 C21.89868941 126.3930987 17.83171553 125.48890375 13.86328125 122.40234375 C8.87092143 117.26734507 7.75802039 111.9524997 7.73828125 104.96484375 C7.7700175 103.44377079 7.8082162 101.92275093 7.86328125 100.40234375 C7.34121094 101.21316406 6.81914062 102.02398437 6.28125 102.859375 C-0.93026078 113.80969487 -8.89749744 123.86106992 -21.13671875 129.40234375 C-21.79671875 129.73234375 -22.45671875 130.06234375 -23.13671875 130.40234375 C-27.98983254 130.98412826 -32.96280109 131.51354008 -37.4140625 129.23828125 C-41.72447882 125.6842382 -43.76765062 122.19949166 -44.5078125 116.58984375 C-44.89738403 97.89041048 -37.84370892 79.88128624 -32.296875 62.28125 C-30.50327909 56.5862899 -28.73107333 50.88870668 -27.07421875 45.15234375 C-26.87054688 44.48114502 -26.666875 43.80994629 -26.45703125 43.1184082 C-25.04872324 38.1405713 -24.93120138 33.5203891 -25.13671875 28.40234375 C-31.45302757 27.95117883 -35.49253516 30.00304152 -40.44921875 33.71484375 C-64.36461892 55.31245184 -73.23686969 102.10392085 -76.13671875 132.40234375 C-79.82377035 132.74076225 -83.51142134 133.07215983 -87.19921875 133.40234375 C-88.75672852 133.54542969 -88.75672852 133.54542969 -90.34570312 133.69140625 C-95.63249481 134.16134329 -100.82906256 134.5228012 -106.13671875 134.40234375 C-107.50941565 132.17011957 -108.17907505 130.87788949 -107.94335938 128.23144531 C-107.72873047 127.42674805 -107.51410156 126.62205078 -107.29296875 125.79296875 C-107.04305176 124.83575928 -106.79313477 123.8785498 -106.53564453 122.89233398 C-106.23899902 121.82313721 -105.94235352 120.75394043 -105.63671875 119.65234375 C-105.32847168 118.5012915 -105.02022461 117.35023926 -104.70263672 116.16430664 C-101.11404711 102.95880114 -97.20400177 89.84161395 -93.3421936 76.71408081 C-89.33459375 63.0902107 -85.43476124 49.44968966 -81.82421875 35.71484375 C-81.6374054 35.0056076 -81.45059204 34.29637146 -81.25811768 33.56564331 C-78.13406419 22.47912226 -78.13406419 22.47912226 -77.07421875 11.08984375 C-77.08324219 10.20683594 -77.09226563 9.32382813 -77.1015625 8.4140625 C-77.11316406 7.75019531 -77.12476563 7.08632812 -77.13671875 6.40234375 C-68.6944786 4.67060218 -59.73090231 3.09549625 -51.13671875 4.40234375 C-48.82078943 6.2782465 -47.46402867 7.74772391 -46.13671875 10.40234375 C-45.81095819 15.83168636 -46.68405662 20.22723492 -48.13671875 25.40234375 C-47.64042969 24.68949219 -47.14414062 23.97664063 -46.6328125 23.2421875 C-36.85598784 9.45816336 -18.56858909 -10.1315991 0 0 Z " fill="#000000" transform="translate(320.13671875,150.59765625)"/>
<path d="M0 0 C-1.32303755 8.61688185 -3.06643721 17.07801901 -5.0625 25.5625 C-5.4656543 27.30370117 -5.4656543 27.30370117 -5.87695312 29.08007812 C-7.85159266 37.55477799 -7.85159266 37.55477799 -9 41 C-8.36497559 40.90912109 -7.72995117 40.81824219 -7.07568359 40.72460938 C-4.17604783 40.31211332 -1.27555158 39.90600407 1.625 39.5 C2.62402344 39.35691406 3.62304688 39.21382812 4.65234375 39.06640625 C9.46944557 38.39647818 14.12196787 37.80021711 19 38 C15.32189974 50.9182058 15.32189974 50.9182058 11 55 C3.526347 58.28250109 -4.94854236 58.54163499 -13 59 C-13.17754318 59.72965973 -13.35508636 60.45931946 -13.53800964 61.21109009 C-15.32038082 68.44946551 -17.27457284 75.61805309 -19.36328125 82.7734375 C-19.67774704 83.85847565 -19.99221283 84.94351379 -20.31620789 86.06143188 C-21.31289446 89.49989495 -22.31239006 92.93753123 -23.3125 96.375 C-25.58141973 104.17731132 -27.84220859 111.9817914 -30.0791626 119.79333496 C-30.68925549 121.91788327 -31.3031015 124.04135767 -31.9208374 126.16369629 C-32.78557416 129.13982168 -33.63484669 132.11995821 -34.48046875 135.1015625 C-34.73701736 135.97275726 -34.99356598 136.84395203 -35.25788879 137.74154663 C-36.75176965 143.08436833 -37.86888261 148.4416732 -37 154 C-35.12447731 156.32645936 -35.12447731 156.32645936 -32.0625 156.125 C-26.14837661 155.12281591 -21.60724683 150.56266083 -17 147 C-15.02288548 145.62511002 -13.02045503 144.31056543 -11 143 C-12.89868322 155.09858608 -21.20949549 165.86878333 -30 174 C-30.48726562 174.49242187 -30.97453125 174.98484375 -31.4765625 175.4921875 C-37.21334043 180.95708022 -43.983775 183.53912172 -51.8125 184.4375 C-57.06720845 183.71626551 -60.01057138 181.98942862 -63.75 178.25 C-69.20932859 170.36430315 -68.90282474 161.06423902 -67.53076172 151.84814453 C-65.1851123 140.04050089 -62.00309257 128.4781424 -58.8125 116.875 C-58.22981381 114.74164862 -57.64754129 112.60818421 -57.06567383 110.47460938 C-55.38396113 104.31451925 -53.69295916 98.15700711 -52 92 C-51.53737988 90.31544479 -51.07481109 88.63087549 -50.61230469 86.94628906 C-48.41912422 78.96116387 -46.21705652 70.97853351 -44 63 C-44.62044189 63.0815332 -45.24088379 63.16306641 -45.88012695 63.24707031 C-48.68861975 63.60355409 -51.49995693 63.92709877 -54.3125 64.25 C-55.28896484 64.37890625 -56.26542969 64.5078125 -57.27148438 64.640625 C-58.20927734 64.74375 -59.14707031 64.846875 -60.11328125 64.953125 C-61.40939331 65.11022949 -61.40939331 65.11022949 -62.73168945 65.27050781 C-65 65 -65 65 -66.74291992 63.19042969 C-69.1122359 59.06195757 -69.32410574 55.69953326 -69 51 C-68.16015625 48.35546875 -68.16015625 48.35546875 -66 46 C-62.43316469 45.0553515 -58.86187487 44.88463841 -55.1875 44.6875 C-54.20201172 44.61466797 -53.21652344 44.54183594 -52.20117188 44.46679688 C-47.46293054 44.13266972 -42.75197173 43.9112535 -38 44 C-37.51548062 41.23001185 -37.03732505 38.45915318 -36.5625 35.6875 C-36.42779297 34.92115234 -36.29308594 34.15480469 -36.15429688 33.36523438 C-36.02216797 32.58857422 -35.89003906 31.81191406 -35.75390625 31.01171875 C-35.61227051 30.20669922 -35.47063477 29.40167969 -35.32470703 28.57226562 C-34.93577614 25.96021926 -34.93577614 25.96021926 -35.03076172 23.14648438 C-35.02725523 20.18701142 -34.89878611 17.82431922 -34 15 C-31.0580173 12.18124566 -27.7147557 10.7235011 -24 9.125 C-22.14542235 8.2534782 -20.29125197 7.38108917 -18.4375 6.5078125 C-17.07238281 5.89534668 -17.07238281 5.89534668 -15.6796875 5.27050781 C-12.30472308 3.67035158 -9.14147951 1.78902871 -5.97265625 -0.18408203 C-3.5609202 -1.18160949 -2.41165287 -0.87334745 0 0 Z " fill="#000000" transform="translate(813,64)"/>
<path d="M0 0 C3.10485394 2.50113234 5.46336676 5.23923352 7.25 8.8125 C8.27961495 19.32807561 6.25393358 28.06698563 0 36.625 C-4.44048839 41.95550007 -9.87230162 47.30819559 -17.0546875 48.05078125 C-21.15304443 48.16912286 -23.9873354 48.20194576 -27.6875 46.3125 C-31.63418382 41.52864083 -33.32505101 36.25941936 -33.03125 30.00390625 C-31.71398905 19.74024801 -28.0461731 9.82595659 -19.6875 3.3125 C-13.44809982 -0.8628264 -7.2267142 -3.12062659 0 0 Z " fill="#000000" transform="translate(388.75,87.1875)"/>
</svg>
